<svg id="Layer_1" data-name="Layer 1" xmlns="http://www.w3.org/2000/svg" viewBox="0 0 102.91 64.94"><defs><style>.cls-1{fill:#b3a17c;fill-rule:evenodd;}</style></defs><title>behance</title><path class="cls-1" d="M347.72,644.66l0.85,0.13-0.13.34-0.78-.24,0.06-.23h0Zm4.48,3.76,0.37,0-0.23.37-0.32-.15,0.18-.27h0Zm15.3-2.18h1.11l0,0.26-1.11-.08,0-.18h0Zm0.87-1.26a1.1,1.1,0,0,1,.28.46,1,1,0,0,1-.46.2,1.27,1.27,0,0,1-.38-0.44,1.24,1.24,0,0,1,.56-0.21h0Zm-23.18,2.48c-0.14,1.25.39,1.53,1.56,1.52,6.54,0,13.09,0,19.63,0,3.57,0,4.59,0,4.86-1.8a1.31,1.31,0,0,1,0-.41h0c0.06-.71,0-1.63,0-2.86s-0.49-1.53-1.62-1.51c-3,0-6.07,0-9.11,0a10.45,10.45,0,0,1-2.53.82,1.93,1.93,0,0,1-2-.83c-1.94,0-3.88,0-5.81,0-1.6,0-3.69-.67-4.67.26s-0.19,3.16-.38,4.79h0Z" transform="translate(-278.21 -638.29)"/><path class="cls-1" d="M294.07,694.11c-1.1-.16-1.9-0.22-2.68-0.4s-1.58.56-2.72-.16a6.47,6.47,0,0,1,5.4.56h0Zm-4.86,5.36-0.39-.18,0.27-.25,0.3,0.14-0.18.3h0Zm17.62-6.58h0.55c0,0.36-.1.72-0.11,1.07h-0.44v-1.07h0Zm2.33,3.9-2.31-.4c1.14-.53,1.14-0.53,2.31.4h0ZM279.62,694c-0.42-.21-0.83-0.43-1.24-0.66,0,2.34,0,4.68,0,7a2.45,2.45,0,0,0,.17,1.05c1.41,0.06,2.83.11,4.24,0.12,2.23,0,4.47-.45,6.7-0.44,4.91,0,9.81.15,14.72,0.27a3.15,3.15,0,0,0,3.12-1.32c0.47,1.4,1.48,1.4,2.53,1.38l5.5-.11a29.58,29.58,0,0,0,3.36-.78,16.22,16.22,0,0,0,11.12-10c-0.67,0-1.35,0-2-.06-3.26-.15-6.51-0.76-9.77-0.78-1.48,0-3-.08-4.44-0.11a9.05,9.05,0,0,1-3,1.19,16.2,16.2,0,0,1-3.24.38c-4.71,0-9.42,0-14.13,0a1.1,1.1,0,0,1-1.33-.74l-2.33.08a1.74,1.74,0,0,0-1.54.78,1.25,1.25,0,0,1-2.08.21,5.64,5.64,0,0,0-1.59-.65l-0.12.21,1.22,1.34a26.58,26.58,0,0,1-5.1,1.71,1.36,1.36,0,0,1-.79-0.13h0Z" transform="translate(-278.21 -638.29)"/><path class="cls-1" d="M280,691.38l-1.64.13c0,0.22,0,.44,0,0.66a16.7,16.7,0,0,1,4.18-.74,16.66,16.66,0,0,0-2.55-.06h0Z" transform="translate(-278.21 -638.29)"/><path class="cls-1" d="M306.55,667.85c0.29,1.77-2.14-1.29-2.08,2h-1.39c0.31-3.29,1.42-2.92,3.47-2h0Zm-9.33,2.91s0-.34,0-0.5c0.68,0.22,1.45-.41,2.28.5h-2.32ZM287,674.31v-1.18h3.29c-0.71,1.64-1.64,1.68-3.29,1.18h0Zm31.29-5.14,0,0.27c-0.29,0-.58,0-0.87,0v-0.29h0.92Zm3.07-4.33,0.8,0.16,0,0.23h-0.83l0-.39h0Zm-0.07,12.79,0.39,0.17-0.28.45-0.37-.16a1.51,1.51,0,0,1,.26-0.46h0Zm-35.7-11.52a1.06,1.06,0,0,1-1.72-.3h0l-0.79-1.58a5.37,5.37,0,0,1,1.05-.19,3.58,3.58,0,0,1,1.19.22,1.41,1.41,0,0,1,.83.69,1.74,1.74,0,0,1-.58,1.16h0Zm-2.38,3-0.37,0,0.1-.07h0.66a5.86,5.86,0,0,1,.81-0.07l0.25,0.07h-1.06l-0.39,0h0Zm-1.55,6.21,0-.32,1.31-.11,0.1,0.24-1.38.19h0Zm-2.12.08a1.14,1.14,0,0,1-.36-0.43l0.36-.34L280,675l-0.39.46h0Zm5.54-14.78c-2.15-.16-4.17.53-6.35,0.43h-0.49q0,4.13,0,8.25l2.67,0c0,0.17,0,.34,0,0.51l-2.67.11q0,5.44,0,10.88a40.93,40.93,0,0,0,4.31-.39c1.39-.21,2.82,0,3.67-1.14a9.89,9.89,0,0,0,2,.76,18,18,0,0,0,2.86.14h0.74c0-1.58,0-3.33,0-4.91l0-.54h-0.16l0.19,0c0.12-.65.53-0.76,1.38-0.73l0.16,0a1.36,1.36,0,0,1,.72,0c2.22,0,4.34,0,5.58,0,4.27,0.18,7.44-.14,10.57.4,3.68,0.63,6,2.64,6.65,5.65h0.94c1.89,0,3.78-.06,5.67,0,2.51,0,5,.14,7.53.2a14.92,14.92,0,0,0-.81-3.15c-1.08-.2-2.28-0.09-3.13-1a1.33,1.33,0,0,1,.2-0.5,1.7,1.7,0,0,1,.71-0.3l1.32-.12a16.09,16.09,0,0,0-2.73-3.53c-1.37.33-2.72,1.06-4.1-.09a1.26,1.26,0,0,0-1,0c-1.54.52-3.25-.32-4.76,0.59a2.06,2.06,0,0,1-1.09-.32,3.54,3.54,0,0,0-.91-0.35c-2.38-.09-4.76-0.15-7.14-0.21l-4.26-.08h-2.12c0-.21,0-0.42,0-0.63,1.83,0,3.66,0,5.49,0,4.42,0.1,8.83.27,13.25,0.34l6,0.09a22,22,0,0,0-2.73-2.08c-0.94-.61-2-1-3-1.55a1,1,0,0,1,.77-0.72,13.64,13.64,0,0,0,4.94-4.22c-0.63-.1-1.26-0.13-1.9-0.21a4.3,4.3,0,0,1-1.6-.54c0.05-.18.1-0.23,0.15-0.23h3.69a1.43,1.43,0,0,0,.6-0.83q-5.48-.21-11-0.21c-0.77,0-1.54.06-2.31,0.06l-0.09.19a5.43,5.43,0,0,1-.34.46l0.51-.15a3.12,3.12,0,0,1-.66,1.24,1.06,1.06,0,0,1-.71-0.23,7.7,7.7,0,0,1-3.95,1.43,66.57,66.57,0,0,1-7.75.21c-2.36,0-4.72,0-7.07,0a1.16,1.16,0,0,1-1.41-1.39c0-.56,0-1.12,0-1.68h-0.51c-2.18,0-4.37.06-6.54-.1h0Z" transform="translate(-278.21 -638.29)"/><path class="cls-1" d="M281.07,650.47v0.1l-0.9.05v-0.16h0.91Zm3,2.49c0,0.18,0,.08,0,0.57h-1.8l0-.32c0.6-.1,1.21-0.15,1.81-0.24h0ZM314,640.42l4.39,0.5-0.06.46-4.38-.55,0-.41h0Zm11.38,4.37c0.3,1.6.3,1.6-1,1.88l1-1.88h0Zm-42.56,15.1c2.44,0,4.88-.15,7.33-0.17h2q0-3.27-.08-6.55c-1.82,0-3.64,0-5.46.08l0-.46,4.87-.29,0.62,0c0-.64,0-1.28,0-1.93s0.11-1.24,1-1.22c5.17,0.13,10.35-.6,15.5.08a7.17,7.17,0,0,1,2.73.94l3.39,0.11,0.14-.18v-0.15h0.08c0.34,0,.68-0.29,1-0.33,3.38-.29,6.76-0.46,10.14-0.72-3.64,1.26-7.41,1.27-11.17,1.32l0,0h-0.18a18.58,18.58,0,0,1-2.26.29h-0.55a7.39,7.39,0,0,1,2.74,4.16h0.63c2.38,0,4.76.1,7.13,0,1.91-.1,4,0,5.18-2.06a1.18,1.18,0,0,1,.6-0.42c-0.64-6.14-3.87-10.4-9.83-12.48a20.41,20.41,0,0,0-6.42-1.15c-10.69-.17-21.39-0.26-32.08-0.44-1.29,0-1.61.36-1.61,1.58v0.06c0,6.66,0,13.33.06,20l4.52,0h0Z" transform="translate(-278.21 -638.29)"/><path class="cls-1" d="M278.34,681.88c0,2.91,0,5.82,0,8.73l3.08-.19c2.51-.17,4.94-0.7,7.45-0.86,1-.06,2-0.1,3-0.15,0-2.8,0-5.61,0-8.41-1.55-.06-3.11.12-4.65,0.18a17.22,17.22,0,0,1-3.07,0,2.29,2.29,0,0,0-2.36.56l0.1,0,0.86-.18,0,0.44-0.84-.26-0.16,0,0-.07-3.44.18h0Z" transform="translate(-278.21 -638.29)"/><path class="cls-1" d="M314.9,656.86l-0.08.06a7.48,7.48,0,0,1-.49,2.46c4.39,0.08,8.78.19,13.17,0.26a16.51,16.51,0,0,0,.73-6.6c-1.24,1-1.54,2.48-1.69,4.13l-0.36-1.82c-3.86-.59-7.73,0-11.55-0.34a7.52,7.52,0,0,1,.19,1.8l0.07,0.06h0Z" transform="translate(-278.21 -638.29)"/><path class="cls-1" d="M320,681.3a18.05,18.05,0,0,1-2.83.06c0,0.19.05,0.36,0.05,0.56,0,3.12-.93,5.51-2.8,7.07q2.69,0.08,5.39.2a50.76,50.76,0,0,1,5.48.52c1.56,0.24,3.13.43,4.7,0.55A22.13,22.13,0,0,0,331,686a19,19,0,0,0,.18-4.55c-3.75-.1-7.5-0.61-11.27-0.15h0Z" transform="translate(-278.21 -638.29)"/><path class="cls-1" d="M369.25,678a10.48,10.48,0,0,1-2,.63,14.66,14.66,0,0,1-2.35-.15,15.29,15.29,0,0,1,1.35-1.45c1.21,0.86.92-.72,1.59-0.93,0.49,0.67,1.6.93,1.37,1.9h0Zm1.09-.6a7.33,7.33,0,0,1,1.61-.59c1.28-.15,2.57-0.21,3.85-0.25s1.85,0.64,2.45,1.84c-2.17.86-4.26,0.26-6.29,0.24a4.74,4.74,0,0,1-1.66-.75l0-.49h0Zm10-1.1a2.16,2.16,0,0,0,.41,0c0,0.36,0,.72,0,1.09a1.46,1.46,0,0,1-.46,0v-1.12h0Zm-36.55,1.87-0.23-.24,0.22-.25,0.21,0.24-0.21.24h0Zm-1.69.64-3-.79c0.88-1.23,1.81-.53,2.53-0.57,0.5,0,.95.51,0.45,1.36h0Zm18.72-3.46a9.84,9.84,0,0,0,2.18.37c1.17,0.12,1.18.8,0.87,2-1.27-1.66-3-1.2-4.4-1.69l-0.5,1.23a4.13,4.13,0,0,1-.65,0,3.38,3.38,0,0,1-.55-0.18c-0.35-1.75-1-2.53-1.78-2l0.78,1.29a5.64,5.64,0,0,1-2,0,2.28,2.28,0,0,0-2.63.4,2.86,2.86,0,0,1,0,1.27,2,2,0,0,1-1.13.76,6.07,6.07,0,0,1-2-.05c-1.12-.2-2.19-0.69-3.38-0.33a3.3,3.3,0,0,1-1.13-.69l3.62-.85c-0.93-.89-1.62-1.71-2.69-1.76-2.17-.11-4.35-0.15-6.52-0.1a1.61,1.61,0,0,0-1.69,1.24,5.66,5.66,0,0,0-.06.6l1.48,1.06a5.73,5.73,0,0,1-3.49.17c0,0.75,0,1.5,0,2.25,0.3,0,.6,0,0.9,0,1,0,2,.11,3,0.08,1.63,0,3.26-.18,4.89-0.22,2.31-.06,4.63,0,6.94-0.1,2-.06,4-0.89,6,0.24a1.82,1.82,0,0,0,.6-0.07c2.44,0.05,4.9-.75,7.33.15a2,2,0,0,0,.79-0.13,31.26,31.26,0,0,1,3.19-.43c2.66-.11,5.32-0.16,8-0.17,1.49,0,3,0,4.46,0-0.16-1.57-.16-3.15-0.3-4.72-1.51-.05-3-0.09-4.53-0.07-2.66,0-5.32,0-8,.07s-5.06-.39-7.55.39h0Z" transform="translate(-278.21 -638.29)"/><path class="cls-1" d="M356.89,674h-4.56c1.52,0,3,0,4.56,0h0Z" transform="translate(-278.21 -638.29)"/><path class="cls-1" d="M342.3,686.49l1,0.34-0.1.34-1-.37,0.12-.31h0Zm2.42-2c0.62-.15,1.19-0.09,1.12.62a1.45,1.45,0,0,1-.95,1,1.37,1.37,0,0,1-1.66-1.47,11,11,0,0,0,1.49-.17h0Zm-3.93,2.23-1-.15v-0.3a2.2,2.2,0,0,1,.65-0.07,1.71,1.71,0,0,1,.51.31l-0.12.22h0Zm-3.17-.79-0.13-.33,1.14-.46,0.13,0.32-1.14.47h0Zm-0.77-4.49a1.13,1.13,0,0,0-.94-0.17,3.14,3.14,0,0,1-.82.28,31.6,31.6,0,0,0,2,8.75c4.43-.28,8.87-0.53,13.31-0.79a13,13,0,0,1-2.1-6c-0.16-1.39.33-1.64,1.58-1.62l4.3,0c0.17-.06.35-0.12,0.52-0.16l0.08,0.17H365a25.59,25.59,0,0,1-4-.59,35.08,35.08,0,0,0-6.46-.65,4.23,4.23,0,0,0-.78.18,16.23,16.23,0,0,1-2,.21c-3.1,0-6.2,0-9.31,0,1.66,0.56,3.44-.16,5.06.68-1.82.27-3.63,0.36-5.44,0.53s-3.66.3-5.28-.87h0Z" transform="translate(-278.21 -638.29)"/><path class="cls-1" d="M352.63,693a2.58,2.58,0,0,1,.75,0v0.24l-1.28.4-0.15-.29a2.8,2.8,0,0,1,.68-0.38h0ZM370.86,698L370,697l0.24-.21,0.89,1-0.28.25h0Zm-30.37-7.34-3.28,0,0,0.07a17.46,17.46,0,0,0,9.29,9.75c0.4,0.18.81,0.34,1.21,0.5,3,0,6.07,0,8.87,0l1.92-2.57c1.36,1,0,1.71.09,2.48a4.41,4.41,0,0,0,.65.1h10.41c4.69-2.24,7.94-6.14,9.93-11.38a52.81,52.81,0,0,1-8.59.22c-1.13,0-2.27-.08-3.4-0.12A11.5,11.5,0,0,1,357,693.53a2,2,0,0,1,1,1.69l0.05,0v0.08l1.08,0.77a0.78,0.78,0,0,1-1.08-.77l-0.05,0,0,0,0,0v-0.08l-3-2.16a9.05,9.05,0,0,1-4.26-3,33.46,33.46,0,0,0-3.59.36,40.32,40.32,0,0,1-6.69.25h0Z" transform="translate(-278.21 -638.29)"/><path class="cls-1" d="M379.16,689.2c0-.7,1-1.46-0.38-1.44-3.11,0-6.06,0-9.16,0a1.18,1.18,0,0,0-1.14.72c-0.17.26-.63,0.48-0.82,0.72h11.5Z" transform="translate(-278.21 -638.29)"/><path class="cls-1" d="M350.37,701.92a28.64,28.64,0,0,0,14.66.65,21.65,21.65,0,0,0,2.88-.84c-0.38,0-.76,0-1.14,0-5.47,0-10.94,0-16.4.14h0Z" transform="translate(-278.21 -638.29)"/><path class="cls-1" d="M342.82,673.81c1.42,0,2.85.28,4.27,0.25l2.15,0c-0.71-.09-0.85-0.46-0.68-1.33l-1.33.13c-0.9-1.26-1.27-1.5-3.19-1.1a45.17,45.17,0,0,1-7.89.52H336c-0.17.63-.32,1.26-0.45,1.88,2.31-.51,4.85-0.27,7.28-0.33h0Z" transform="translate(-278.21 -638.29)"/><path class="cls-1" d="M345.15,663.95l1.67,0.33c-1,1-1,1-1.67-.33h0Zm4.46-3.77,0,0.51H347v-0.29c0.86,0,1.72-.17,2.58-0.22h0Zm0.69,7.47h-1v-0.18c0.34,0,.68,0,1,0v0.16h0Zm-2.72-.15c-0.6-.06-1.2-0.08-1.79-0.14v-0.19h1.8v0.33h0Zm-3.6-4.24-0.88-.46,0.2-.31c0.29,0.11.57,0.26,0.85,0.39l-0.16.38h0Zm-1.39.7v-0.2h1.11l0,0.3c-0.38,0-.77-0.08-1.15-0.1h0ZM340,669.84l0-.43,1.2-.07,0,0.34-1.2.16h0Zm18.74-14.71c0.87,0.9.58,1.32-.21,2.14l0.21-2.14h0Zm6.89,9,0,0.33-1.85.18,0-.3,1.84-.2h0Zm-0.54-2.78a4,4,0,0,0-1.17.42l-0.08-.42h1.25Zm0.06-.19h0v0a2.53,2.53,0,0,1,.73,0,1,1,0,0,1,.28.43,1.2,1.2,0,0,1-.62.15,1.62,1.62,0,0,1-.39-0.61h-0.08l0.06,0h0Zm15.17,11-3-.19c1-.14,2.07-0.6,3,0.19h0ZM345.82,660h-1.89c-0.55,1.64-1.38,1.44-2,1a24.45,24.45,0,0,0-4.32,6.63,30.83,30.83,0,0,0-1.35,3.59c0.63,0,1.26.06,1.9,0.06,3.25,0,6.54.25,9.59-1.3a2.31,2.31,0,0,1,1.25,0,10.42,10.42,0,0,1,3.82-4.44v0l0.56,0.28c1.89-1,4.6-2.47,6.85-.83h1.17v0c0.31,0.08.61,0,.92,0.13a7.42,7.42,0,0,1,1.42.63c-0.15-.11-0.3-0.25-0.45-0.37,1.27-.4,1.83.29,2.3,1.13l-0.25.36-0.38-.29a10.27,10.27,0,0,1,2.37,3c0.68,0.06,1.36.14,2,.26l-1.74.38a9.35,9.35,0,0,1,.43,1.23c1,0.08,2,.19,3,0.33-0.93.17-1.86,0.44-2.78,0.63,0,0.23.08,0.45,0.1,0.68v0.33l8.29-.29,0,0.27-2,.65a7.4,7.4,0,0,0,2.74.49c0.94,0,1.88,0,2.75,0l0.48-1h0c-0.15-1-.33-1.92-0.55-2.84a1.79,1.79,0,0,1-.4,0c0.1-.2.18-0.38,0.26-0.55a25.8,25.8,0,0,0-.82-2.57,4.39,4.39,0,0,0-.78-0.23c-0.73-.15-1.5-0.14-2.23-0.29a8.9,8.9,0,0,1-1.56-.74l2-.93-0.12,0,0,0a2.59,2.59,0,0,0-2.17.25,2.2,2.2,0,0,1-2.89-.37l-0.09-.22h0l0.07,0.17,0,0.14h0l0.06,0.08a2.27,2.27,0,0,0,2.72-1.29c0.87,0.41,1.93.16,2.34,1.22l0.12,0a2.21,2.21,0,0,1,1.64,0,18,18,0,0,0-3.33-4.6c-1.4.58-1.36,0.68-2.34,0.46l0.71-.49a7.71,7.71,0,0,0-2.89.11c-0.8.19-1.29,1.34-2.61,0.84l1.28-1c-1.71,0-3.19,0-4.67,0s-3-.18-4.49-0.2-3,.09-4.49,0-2.85.46-4.39,0a1.81,1.81,0,0,1,2-1,17.38,17.38,0,0,0,3.06.12c4.42,0,8.84.06,13.25,0,1.41,0,2.81-.08,4.21-0.14a19.18,19.18,0,0,0-3.4-2.18c-0.35-.18-0.71-0.33-1.07-0.49l-0.19.37a1.06,1.06,0,0,1-1,.05,1.7,1.7,0,0,1-.36-1A27,27,0,0,0,356.8,655c-5.26.36-9.72,1.56-13.27,4.53,0.78,0,1.55.47,2.29,0.47h0Z" transform="translate(-278.21 -638.29)"/><path class="cls-1" d="M349.05,671a11.07,11.07,0,0,1,.46-1l-1.18.7a3,3,0,0,0,.72.35h0Z" transform="translate(-278.21 -638.29)"/><path class="cls-1" d="M374.64,681.62l-1,.21-0.26.12c1.87,0,3.74,0,5.62.08,1.22,0,1.82-.23,2-0.9a25.38,25.38,0,0,0-6.42.5h0Z" transform="translate(-278.21 -638.29)"/></svg>