<svg id="Layer_1" data-name="Layer 1" xmlns="http://www.w3.org/2000/svg" viewBox="0 0 89.64 76.4"><defs><style>.cls-1{fill:#272727;fill-rule:evenodd;}</style></defs><title>hat</title><path class="cls-1" d="M293,452.62s11-12.86,14.32-22.77,3.31-16.53,3.31-16.53,9.55-5.88,29.38,5.51a60.57,60.57,0,0,1,26.08,30.49s-5.14,2.2-12.85,9.55-10.65,20.57-10.65,20.57c3-.17,16.16,2.66,12.37,7.4-2.41,2.76-3.64.8-7.31-1-2.8-1.38-5.61-2.35-15.34-3.45-19.47-2.2-37.1-5.88-50-22.4s-2.57-33.42,10.65-7.35h0Z" transform="translate(-276.5 -411.8)"/></svg>