<svg id="Layer_1" data-name="Layer 1" xmlns="http://www.w3.org/2000/svg" viewBox="0 0 94.68 23.14"><defs><style>.cls-1{fill:#272727;fill-rule:evenodd;}</style></defs><title>m2</title><path class="cls-1" d="M321.32,372.5s-8.57-9.68-18.9-1.58c-7.59,5.95-12.09,10.86-17.1,11.65-11.78,1.85-8.28-11.42-1.06-9.32-10-4.73-14.6,8.65-5,14,5.48,3,14.05,4.4,22,3.18,14-2.14,20-9,20-9s6.05,6.89,20,9c8,1.22,16.54-.16,22-3.18,9.62-5.3,5-18.68-5-14,7.23-2.09,10.72,11.18-1.05,9.32-5-.79-9.51-5.7-17.1-11.65-10.34-8.1-18.9,1.58-18.9,1.58h0Z" transform="translate(-273.98 -367.69)"/></svg>