<svg id="Layer_1" data-name="Layer 1" xmlns="http://www.w3.org/2000/svg" viewBox="0 0 500 544.03"><defs><style>.cls-1{fill:#e1e1e1;}</style></defs><title>MHAT</title><path class="cls-1" d="M504.93,656.87s-45.31-51.18-99.94-8.35c-40.13,31.46-63.93,57.42-90.42,61.6-62.29,9.78-43.78-60.38-5.6-49.28-52.88-25-77.2,45.74-26.44,74,29,15.86,74.29,23.27,116.33,16.81,74-11.32,105.75-47.59,105.75-47.59s32,36.43,105.75,47.59c42.3,6.45,87.46-.85,116.33-16.81,50.87-28,26.44-98.77-26.44-74,38.23-11.05,56.68,59.12-5.55,49.28-26.44-4.18-50.29-30.14-90.42-61.6-54.67-42.83-99.94,8.35-99.94,8.35h0.58Z" transform="translate(-254.64 -209.99)"/><path class="cls-1" d="M368.9,359s-5.56,18.86-11.08,10.17-15.95-31.24-38.8-31.24-19.38,34.11,0,56.49,38.11,42.1,79,42.1c35.63,0,70.43-8.69,106.67-8.69s71,8.69,106.67,8.69c40.89,0,59.57-19.6,79-42.1s22.86-56.49,0-56.49-33.24,22.51-38.8,31.24S640.38,359,640.38,359s-2.09-12.34-2.09-55.18S639.69,253,598.8,229c-43.45-25.38-145.08-25.38-188.41,0C369.51,253,370.9,261,370.9,303.8S368.81,359,368.81,359h0.09Z" transform="translate(-254.64 -209.99)"/></svg>