<svg id="Layer_1" data-name="Layer 1" xmlns="http://www.w3.org/2000/svg" viewBox="0 0 87.55 46.92"><defs><style>.cls-1{fill:#272727;fill-rule:evenodd;}</style></defs><title>ll</title><path class="cls-1" d="M232.58,621.9a9.57,9.57,0,0,0-1.46,3.68c-0.87,4-3.13,8-8.34,3.82s-19.42-17-29.36-18.8a93.74,93.74,0,0,0-18.24-1.53,2.15,2.15,0,0,0-2.78,1.39c-0.69,2.08.87,3.13,2.26,2.26s9.38-1.22,18.94,5.91,16.33,19.63,27.45,29.88,24.34,8.2,31.42,3.47,8-14.07,7-21a26,26,0,0,0-2.52-8c-1.58-3.08-2.64-2.78-5.86-2.78h-12.4c-2.26,0-4.64-.26-6,1.71h0Z" transform="translate(-172.23 -608.96)"/></svg>