<svg id="Layer_1" data-name="Layer 1" xmlns="http://www.w3.org/2000/svg" viewBox="0 0 72.39 37.59"><defs><style>.cls-1{fill:#272727;fill-rule:evenodd;}</style></defs><title>tie</title><path class="cls-1" d="M316.49,623.57a41.58,41.58,0,0,0-16.62-7.77c-10.56-2.48-12-2.17-12-2.17s-6.68,20.5.62,37.58c0,0,7.14.16,16.15-4.5s11.8-8.54,11.8-8.54v-1.39a22.43,22.43,0,0,0,4.74.93,40,40,0,0,0,4.92-.6v1.06s2.79,3.88,11.8,8.54,16.15,4.5,16.15,4.5c7.3-17.08.62-37.58,0.62-37.58s-1.4-.31-12,2.17a41.58,41.58,0,0,0-16.62,7.77v1.71a22.26,22.26,0,0,0-4.09-.78,19.73,19.73,0,0,0-5.57.45v-1.38h0Z" transform="translate(-285.13 -613.62)"/></svg>